<?xml version="1.0" standalone="no"?>
<!DOCTYPE svg PUBLIC "-//W3C//DTD SVG 1.0//EN" "http://www.w3.org/TR/2001/REC-SVG-20010904/DTD/svg10.dtd">
<svg xmlns="http://www.w3.org/2000/svg" xmlns:xlink="http://www.w3.org/1999/xlink" id="body_1" width="120" height="20">

<g transform="matrix(0.5 0 0 0.5128206 0 0)">
	<g>
        <path d="M27.967 0.879C 20.242 0.875 12.182 2.615 4.047 4.872C 3.014 5.0800004 2.006 5.756 1.473 6.592C 0.983 7.38 0.805 8.171 0.652 9C -0.13800001 13.4279995 -0.041999996 17.776001 0.12200004 22.594C 0.15800004 23.697 0.32200003 25.004 0.837 25.799C 1.375 26.602 2.297 27.112 3.3980002 27.279C 4.804676 27.485329 6.2155485 27.660355 7.63 27.803999L7.63 27.803999L7.3180003 36.502C 7.2700005 37.194 7.6080003 37.768997 8.028 38.1C 8.404 38.385998 8.823 38.512997 9.253 38.545C 10.113 38.609997 11.122 38.241997 11.623 37.288C 13.818 33.064 15.195 31.198997 17.94 28.392998C 25.098 28.568998 31.347 28.170998 38.422 27.647997C 40.923 27.582996 42.64 25.537996 43.094 23.904997C 44.451 19.672997 44.662003 14.448997 44.806004 9.167996C 44.867004 7.0749965 44.141003 5.0199966 42.856003 3.9339962C 41.634003 2.9429963 40.154003 2.5839963 38.798004 2.2159963C 35.031 1.363 31.263 0.905 27.967 0.879zM38.257 4.189C 39.615 4.558 40.812 4.913 41.567 5.526C 42.827 6.865 42.785 7.756 42.767002 9.201C 42.625004 14.323 42.379 19.294 41.223003 23.061C 40.725002 24.466002 39.857002 25.466002 38.217003 25.617C 31.009003 26.150002 24.755003 26.562 17.510002 26.356C 17.224857 26.346876 16.948658 26.456198 16.747002 26.658C 13.703002 29.732 12.146002 31.868 9.826002 36.334C 9.772002 36.436 9.655003 36.498 9.511003 36.509C 9.414002 36.503998 9.375003 36.428997 9.369002 36.361L9.369002 36.361L9.683002 26.929C 9.702003 26.42 9.282002 25.934 8.776003 25.879002C 7.084038 25.7174 5.3969297 25.510666 3.716003 25.259C 2.9900029 25.148 2.722003 24.949001 2.523003 24.653C 2.1770031 23.828 2.185003 23.318 2.158003 22.525C 1.9960032 17.75 1.9160031 13.577 2.649003 9.424999C 2.717003 8.810999 2.9470031 8.183 3.191003 7.657999C 3.5950031 7.025999 4.214003 6.932999 4.835003 6.760999C 12.791002 4.563999 20.575003 2.9209993 27.903004 2.9159992C 31.495003 3.045999 35.267002 3.4059992 38.257004 4.188999zM10.778 12.279C 9.682 13.592 9.791 15.375 10.638 16.569C 11.08 17.194 11.7699995 17.697 12.61 17.811C 13.700999 17.901001 14.393 17.459002 15.139999 16.951C 16.493 15.775001 16.63 13.723001 15.601 12.241C 15.077 11.486 14.239 11.033 13.382999 11.001C 12.2109995 11.0130005 11.414999 11.536 10.778 12.278zM22.633999 11.207001C 21.542 11.242001 20.658998 11.998001 20.119999 12.814001C 19.502998 13.747001 19.143 14.915001 19.641998 16.060001C 20.601997 18.263 23.918999 18.236002 25.241999 15.997002C 25.852 14.965002 25.696 13.792002 25.241999 12.941002C 24.789999 12.0910015 24.105999 11.398002 23.110998 11.239002C 22.95339 11.213085 22.793655 11.20237 22.633999 11.207003zM32.259 11.4140005C 31.918999 11.406 31.568998 11.438001 31.241 11.525001C 29.928999 11.875001 28.812 13.229 28.980999 14.962001C 29.067 15.834001 29.467999 16.684 30.190998 17.27C 30.913998 17.855 31.963999 18.117 33.071 17.890001C 34.343 17.630001 35.131 16.605001 35.393997 15.615002C 35.656998 14.625002 35.590996 13.616002 34.979996 12.798002C 34.33575 11.941324 33.331757 11.430468 32.259995 11.414002zM13.293999 13.037001C 13.538999 13.0390005 13.731998 13.117001 13.930999 13.403001C 14.3759985 14.045001 14.251999 15.018001 13.802999 15.408001C 13.355999 15.798001 13.076999 15.832001 12.880999 15.806001C 12.6849985 15.779 12.485998 15.644001 12.307999 15.392001C 11.9679985 14.912002 11.867999 14.136002 12.314999 13.582001C 12.552999 13.266001 12.989999 13.069 13.294998 13.037001zM22.776999 13.26C 22.814999 13.266 23.241 13.5130005 23.444998 13.896C 23.648998 14.279 23.686998 14.635 23.492998 14.962C 22.915998 15.938 21.688997 15.674 21.502998 15.249C 21.432999 15.087 21.485998 14.436 21.822998 13.929C 22.157997 13.42 22.579998 13.229 22.776999 13.259zM33.341 14.008C 33.403 14.091001 33.554 14.648001 33.437 15.09C 33.319 15.532001 33.127 15.805 32.657 15.901C 32.055 16.025 31.717001 15.901 31.464 15.694C 31.210001 15.489 31.039001 15.142 31.002 14.771C 30.912 13.851 31.242 13.638 31.766 13.498C 32.376 13.348001 33.066 13.610001 33.341 14.008z" stroke="none" fill="white" fill-rule="nonzero" />
        <path d="M57.61 4.996C 57.626 4.736 57.721 4.502 57.897 4.295C 58.070568 4.0893755 58.329094 3.975048 58.598 3.9850001L58.598 3.9850001L65.423996 3.9850001C 65.654 3.9850001 65.891 4.0810003 66.135994 4.2720003C 66.36895 4.439255 66.50617 4.709227 66.50399 4.9960003L66.50399 4.9960003L66.50399 15.889L77.92499 15.889L77.92499 4.996C 77.92499 4.72 78.02099 4.483 78.21199 4.284C 78.40399 4.084 78.65199 3.984 78.95899 3.984L78.95899 3.984L85.69299 3.984C 85.99899 3.984 86.26699 4.061 86.496994 4.2139997C 86.727 4.3679996 86.841995 4.613 86.841995 4.95L86.841995 4.95L86.841995 37.1C 86.841995 37.437 86.742 37.69 86.54199 37.857998C 86.343994 38.026997 86.08299 38.110996 85.76199 38.110996L85.76199 38.110996L78.95899 38.110996C 78.65299 38.110996 78.40399 38.026997 78.21199 37.857998C 78.02099 37.69 77.92499 37.438 77.92499 37.1L77.92499 37.1L77.92499 24.047L66.504 24.047L66.504 37.1C 66.504 37.421997 66.4 37.67 66.194 37.847C 65.987 38.023 65.707 38.111 65.354004 38.111L65.354004 38.111L58.598003 38.111C 57.955 38.111 57.626003 37.812 57.610004 37.215L57.610004 37.215L57.610004 4.996L57.61 4.996zM120.485 37.720997C 120.286 37.888996 120.075 37.996 119.853 38.041996C 119.64559 38.086704 119.434166 38.110157 119.222 38.111996L119.222 38.111996L115.752 38.111996C 115.476 38.111996 115.238 38.061996 115.039 37.961994C 114.839005 37.861996 114.671005 37.727993 114.533005 37.559994C 114.391846 37.385475 114.27603 37.191895 114.189 36.984993C 114.096405 36.76882 114.01954 36.546238 113.959 36.318993L113.959 36.318993L113.247 33.37699C 113.017 33.85199 112.684 34.39199 112.247 34.99699C 111.7742 35.639038 111.21336 36.21132 110.581 36.69699C 109.907 37.22699 109.102005 37.67099 108.168 38.03099C 107.233 38.39099 106.160995 38.57099 104.95 38.57099C 103.203995 38.57099 101.618 38.23399 100.19299 37.55999C 98.79787 36.90814 97.55663 35.968178 96.550995 34.80199C 95.548 33.63799 94.77 32.277992 94.218994 30.72199C 93.66699 29.16799 93.39099 27.508991 93.39099 25.74799L93.39099 25.74799L93.39099 10.695C 93.39099 10.113 93.51799 9.672999 93.77099 9.374C 94.02299 9.075 94.42499 8.926 94.97699 8.926L94.97699 8.926L100.28499 8.926C 100.94499 8.926 101.39599 9.035999 101.64099 9.259C 101.885994 9.481 102.00899 9.914 102.00899 10.557L102.00899 10.557L102.00899 25.517C 102.00899 26.177 102.15899 26.801 102.456985 27.391C 102.75599 27.981 103.14999 28.501001 103.64098 28.953001C 104.13098 29.405 104.68598 29.762001 105.306984 30.022001C 105.92699 30.282001 106.55898 30.412 107.20299 30.412C 107.75399 30.412 108.32499 30.282001 108.914986 30.022001C 109.50888 29.758667 110.05892 29.405909 110.54598 28.976002C 111.04398 28.54 111.45398 28.026001 111.775986 27.436C 112.097984 26.846 112.25799 26.222 112.25799 25.564001L112.25799 25.564001L112.25799 10.626C 112.25799 10.366 112.30799 10.106001 112.40799 9.845C 112.50799 9.585 112.65699 9.385 112.85599 9.247001C 113.054985 9.125001 113.24299 9.041 113.41899 8.995001C 113.59499 8.949001 113.79899 8.925001 114.02799 8.925001L114.02799 8.925001L119.22199 8.925001C 119.87999 8.925001 120.354996 9.087001 120.645996 9.408001C 120.937 9.7300005 121.08299 10.159001 121.08299 10.695001L121.08299 10.695001L121.08299 36.411C 121.08299 36.701 121.01799 36.97 120.88799 37.215C 120.757996 37.46 120.577995 37.652 120.34799 37.789L120.34799 37.789L120.48499 37.721zM147.166 34.548996C 146.752 34.962997 146.296 35.406998 145.799 35.881996C 145.301 36.356995 144.75299 36.801994 144.15599 37.214996C 143.55508 37.630623 142.90729 37.97399 142.226 38.237995C 141.5143 38.51016 140.7579 38.646515 139.996 38.639996C 137.91301 38.639996 135.994 38.249996 134.239 37.467995C 132.52823 36.71732 130.988 35.626545 129.712 34.261993C 128.448 32.905994 127.46001 31.308994 126.74801 29.469994C 126.03501 27.631994 125.67901 25.655994 125.67901 23.540993C 125.67901 21.410992 126.03501 19.430992 126.74801 17.600992C 127.46001 15.770992 128.44801 14.176992 129.712 12.8209915C 130.98651 11.457735 132.52731 10.370631 134.239 9.626991C 135.994 8.852991 137.913 8.465991 139.996 8.465991C 140.839 8.465991 141.60901 8.588991 142.306 8.833991C 142.97855 9.067004 143.61922 9.383472 144.213 9.775991C 144.788 10.158992 145.316 10.591991 145.799 11.073992C 146.28099 11.556992 146.737 12.027992 147.166 12.487991L147.166 12.487991L147.166 1.985C 147.166 1.495 147.316 1.082 147.614 0.745C 147.913 0.407 148.361 0.23900002 148.959 0.23900002L148.959 0.23900002L154.129 0.23900002C 154.329 0.23900002 154.539 0.28100002 154.761 0.365C 154.983 0.45000002 155.186 0.568 155.371 0.722C 155.554 0.875 155.703 1.059 155.81801 1.273C 155.93301 1.488 155.99101 1.725 155.99101 1.985L155.99101 1.985L155.99101 36.342C 155.99101 37.522 155.37102 38.112 154.12901 38.112L154.12901 38.112L149.62502 38.112C 149.31902 38.112 149.08101 38.072 148.91301 37.996C 148.74615 37.92111 148.59998 37.806835 148.48701 37.663C 148.35902 37.494343 148.25471 37.308952 148.17702 37.112C 148.06868 36.85254 147.954 36.59581 147.83302 36.342L147.83302 36.342L147.16602 34.549zM133.952 23.540997C 133.94432 24.507393 134.10365 25.467854 134.42299 26.379997C 134.73698 27.259996 135.18498 28.022997 135.76799 28.665997C 136.35649 29.314058 137.07198 29.834167 137.87 30.193996C 138.69 30.569996 139.59799 30.756996 140.594 30.756996C 141.57399 30.756996 142.497 30.580996 143.36299 30.228996C 144.20404 29.89209 144.97237 29.396402 145.62599 28.768997C 146.27544 28.140686 146.80179 27.39659 147.178 26.574997C 147.568 25.731997 147.78699 24.827997 147.833 23.862997L147.833 23.862997L147.833 23.540997C 147.83646 22.579323 147.64882 21.626549 147.28099 20.737997C 146.92477 19.86691 146.40623 19.071463 145.75299 18.393997C 145.09811 17.717321 144.31754 17.174862 143.45499 16.796997C 142.55334 16.402027 141.57832 16.20232 140.594 16.210997C 139.59799 16.210997 138.68999 16.405996 137.87 16.796997C 137.04999 17.186996 136.34999 17.719997 135.76799 18.393997C 135.17644 19.083935 134.72015 19.879133 134.42299 20.737997C 134.10728 21.638603 133.94832 22.58667 133.95299 23.540997zM182.672 34.548996C 182.258 34.962997 181.802 35.406998 181.304 35.881996C 180.806 36.356995 180.258 36.801994 179.661 37.214996C 179.06009 37.630623 178.4123 37.97399 177.731 38.237995C 177.0193 38.51016 176.26291 38.646515 175.501 38.639996C 173.41801 38.639996 171.49901 38.249996 169.74501 37.467995C 168.03389 36.717438 166.49332 35.626656 165.21701 34.261993C 163.95401 32.905994 162.96501 31.308994 162.253 29.469994C 161.541 27.631994 161.184 25.655994 161.184 23.540993C 161.184 21.410992 161.541 19.430992 162.253 17.600992C 162.96501 15.770992 163.953 14.176992 165.21701 12.8209915C 166.49182 11.457624 168.03297 10.370511 169.74501 9.626991C 171.49901 8.852991 173.41801 8.465991 175.501 8.465991C 176.34401 8.465991 177.11401 8.588991 177.811 8.833991C 178.48355 9.067004 179.12422 9.383472 179.718 9.775991C 180.293 10.158992 180.821 10.591991 181.304 11.073992C 181.787 11.556992 182.242 12.027992 182.671 12.487991L182.671 12.487991L182.671 1.985C 182.671 1.495 182.821 1.082 183.119 0.745C 183.419 0.407 183.866 0.23900002 184.464 0.23900002L184.464 0.23900002L189.634 0.23900002C 189.834 0.23900002 190.044 0.28100002 190.266 0.365C 190.48901 0.45000002 190.692 0.568 190.876 0.722C 191.059 0.875 191.209 1.059 191.324 1.273C 191.438 1.488 191.496 1.725 191.496 1.985L191.496 1.985L191.496 36.342C 191.496 37.522 190.876 38.112 189.634 38.112L189.634 38.112L185.13 38.112C 184.824 38.112 184.586 38.072 184.418 37.996C 184.25151 37.92097 184.10568 37.80671 183.993 37.663C 183.865 37.494343 183.7607 37.308952 183.683 37.112C 183.57436 36.852566 183.45929 36.595764 183.338 36.342L183.338 36.342L182.67099 34.549zM169.457 23.540997C 169.44933 24.507393 169.60866 25.467854 169.928 26.379997C 170.243 27.259996 170.691 28.022997 171.273 28.665997C 171.86179 29.314169 172.57762 29.834282 173.37599 30.193996C 174.196 30.569996 175.103 30.756996 176.099 30.756996C 177.079 30.756996 178.002 30.580996 178.868 30.228996C 179.70941 29.8922 180.47807 29.396507 181.13199 28.768997C 181.7807 28.14051 182.30638 27.396427 182.68199 26.574997C 183.073 25.731997 183.29199 24.827997 183.338 23.862997L183.338 23.862997L183.338 23.540997C 183.34146 22.579323 183.15382 21.626549 182.786 20.737997C 182.42978 19.86691 181.91124 19.071463 181.258 18.393997C 180.60312 17.717321 179.82254 17.174862 178.95999 16.796997C 178.05835 16.402027 177.08333 16.20232 176.099 16.210997C 175.103 16.210997 174.19499 16.405996 173.37599 16.796997C 172.55598 17.186996 171.855 17.719997 171.273 18.393997C 170.68144 19.083935 170.22516 19.879133 169.928 20.737997C 169.61229 21.638603 169.45332 22.58667 169.458 23.540997zM197.61 2.008C 197.61 1.5179999 197.732 1.1049999 197.977 0.7679999C 198.223 0.4299999 198.64401 0.2619999 199.24101 0.2619999L199.24101 0.2619999L204.87102 0.2619999C 205.02502 0.2619999 205.18602 0.3039999 205.35402 0.3879999C 205.53065 0.47858799 205.69006 0.5994129 205.82501 0.7449999C 205.97101 0.8979999 206.09302 1.0819999 206.19301 1.2959999C 206.29301 1.5109999 206.343 1.7479999 206.343 2.008L206.343 2.008L206.343 36.342C 206.343 36.924 206.17801 37.364 205.848 37.663C 205.51901 37.961998 205.09401 38.111 204.57301 38.111L204.57301 38.111L199.24101 38.111C 198.64401 38.111 198.223 37.961 197.977 37.663C 197.73201 37.364 197.61 36.922997 197.61 36.342L197.61 36.342L197.61 2.008zM236.31 34.618C 234.97752 35.848907 233.4369 36.833206 231.76 37.525C 230.06186 38.224785 228.24164 38.58033 226.405 38.571003C 224.305 38.571003 222.32199 38.188004 220.453 37.421C 218.62625 36.682682 216.9571 35.602722 215.535 34.239002C 214.11836 32.872757 212.97914 31.245583 212.18001 29.447002C 211.352 27.609003 210.93901 25.610003 210.93901 23.449001C 210.93901 22.101002 211.10301 20.795002 211.43301 19.531002C 211.75182 18.294268 212.22273 17.101841 212.835 15.981002C 213.4402 14.877805 214.18132 13.854822 215.041 12.936002C 215.89838 12.015632 216.87622 11.2153845 217.948 10.557002C 219.03842 9.890156 220.21318 9.372227 221.441 9.017002C 222.7329 8.64454 224.07149 8.458991 225.416 8.466002C 226.688 8.466002 227.921 8.635002 229.116 8.972002C 230.311 9.309002 231.43399 9.784002 232.483 10.396002C 233.533 11.009002 234.493 11.745002 235.367 12.603002C 236.22887 13.446705 236.98508 14.391963 237.619 15.418001C 238.24733 16.436583 238.73825 17.533752 239.07901 18.681002C 239.423 19.838001 239.59601 21.029001 239.59601 22.254002C 239.59601 23.051003 239.58401 23.702002 239.561 24.208002C 239.53801 24.713001 239.419 25.116001 239.205 25.414001C 238.99 25.714 238.635 25.920002 238.136 26.034002C 237.638 26.150002 236.906 26.207003 235.942 26.207003L235.942 26.207003L219.396 26.207003C 219.549 27.187002 219.859 28.007002 220.32599 28.667004C 220.75854 29.291698 221.30882 29.826012 221.94598 30.240004C 222.55899 30.631004 223.20999 30.910004 223.89998 31.080004C 224.53857 31.241772 225.19426 31.326376 225.85298 31.332005C 226.40498 31.332005 226.97098 31.274004 227.55298 31.160004C 228.12662 31.047428 228.69142 30.893696 229.24298 30.700005C 229.75877 30.520733 230.25827 30.297585 230.73598 30.033005C 231.18797 29.781004 231.55197 29.516005 231.82797 29.241005C 232.07297 29.041004 232.28397 28.892004 232.45998 28.792006C 232.63597 28.692005 232.82397 28.643005 233.02298 28.643005C 233.22298 28.643005 233.42497 28.713005 233.63298 28.850006C 233.88489 29.026134 234.1193 29.226051 234.33298 29.447006L234.33298 29.447006L236.76898 32.205006C 236.93698 32.405006 237.04498 32.585007 237.09099 32.745007C 237.137 32.906006 237.15999 33.071007 237.15999 33.239006C 237.15999 33.546005 237.07498 33.810005 236.90698 34.032005C 236.73714 34.25533 236.53569 34.452732 236.30898 34.618004zM225.256 15.475C 224.65799 15.475 224.08 15.594001 223.521 15.831C 222.95367 16.073212 222.42343 16.39439 221.946 16.785C 221.456 17.183 221.016 17.635 220.625 18.140999C 220.25188 18.618061 219.93198 19.13445 219.671 19.681L219.671 19.681L231.414 19.681C 231.10606 19.10484 230.75682 18.551725 230.369 18.026C 230.00023 17.527212 229.56754 17.079044 229.082 16.692999C 228.58528 16.302425 228.02559 15.999415 227.427 15.796999C 226.807 15.581999 226.08301 15.474999 225.256 15.474999z" stroke="none" fill="white" fill-rule="nonzero" />
	</g>
</g>
</svg>